<svg width="263.1" height="108.64" version="1.1" viewBox="0 0 263.1 108.64" xmlns="http://www.w3.org/2000/svg">
  <g transform="translate(-7295.6 -1809.9)">
    <g transform="translate(7342.7 1900)" fill="#253C78">
      <path d="m11.214-0.126q-1.449 0.252-2.646 0.378t-2.331 0.126-2.646-0.189q-1.449-0.126-3.276-0.441l14.112-44.982q1.638-0.189 3.024-0.315 1.449-0.126 2.898-0.126 1.197 0 2.583 0.126 1.449 0.126 3.276 0.315l13.923 45.045q-3.591 0.567-6.3 0.567-1.26 0-2.52-0.126t-2.709-0.378l-2.394-8.757q-1.764 0.504-3.402 0.756-1.575 0.252-3.15 0.252-1.449 0-2.961-0.189-1.512-0.252-3.15-0.693zm8.82-33.264-4.221 16.191q1.071 0.315 2.016 0.504t1.953 0.189q1.071 0 2.079-0.126 1.071-0.189 2.205-0.504z"/>
      <path d="m39.564-22.491q0-5.04 1.134-9.324 1.197-4.347 3.591-7.497 2.457-3.15 6.174-4.914 3.78-1.827 8.946-1.827t8.883 1.827q3.717 1.764 6.111 4.914 2.457 3.15 3.591 7.497 1.197 4.284 1.197 9.324t-1.197 9.324q-1.134 4.221-3.591 7.371-2.394 3.087-6.111 4.851-3.717 1.701-8.883 1.701t-8.946-1.701q-3.717-1.764-6.174-4.851-2.394-3.15-3.591-7.371-1.134-4.284-1.134-9.324zm27.909 0q0-13.734-8.001-13.734-8.19 0-8.19 13.734 0 6.867 1.953 10.269 2.016 3.339 6.174 3.339 8.064 0 8.064-13.608z"/>
      <path d="m101.3-27.657q2.646 1.071 4.725 2.205 2.142 1.071 3.654 2.646 1.512 1.512 2.331 3.717 0.819 2.142 0.819 5.229 0 3.339-1.197 6.048-1.134 2.646-3.402 4.599-2.268 1.89-5.607 2.961-3.276 1.008-7.56 1.008-3.906 0-6.93-0.63-2.961-0.63-6.426-1.953 0.252-2.205 0.882-4.662 0.63-2.52 1.512-5.103 5.796 2.52 10.08 2.52 3.213 0 4.977-0.945 1.827-1.008 1.827-3.402 0-1.008-0.378-1.701-0.378-0.756-1.008-1.26-0.63-0.504-1.449-0.819-0.756-0.378-1.575-0.693l-3.528-1.323q-2.268-0.819-4.158-1.953-1.827-1.134-3.15-2.646-1.323-1.575-2.079-3.591-0.693-2.016-0.693-4.725 0-3.339 1.134-5.922t3.15-4.347q2.079-1.827 4.977-2.709 2.898-0.945 6.489-0.945 3.213 0 6.174 0.63 3.024 0.63 6.426 1.827-0.252 2.016-0.945 4.473-0.63 2.394-1.638 4.536-1.638-0.693-3.843-1.449t-5.481-0.756q-1.008 0-1.953 0.189-0.882 0.189-1.638 0.63-0.693 0.378-1.134 1.134-0.441 0.693-0.441 1.764 0 1.827 1.197 2.709t2.835 1.512z"/>
      <path d="m123.98-35.469h-10.521q-0.567-2.709-0.567-4.977 0-2.079 0.567-4.851h32.193q0.252 1.386 0.378 2.583t0.126 2.268q0 2.079-0.504 4.977h-10.521v35.28q-3.339 0.567-5.544 0.567-2.331 0-5.607-0.567z"/>
      <path d="m148.99-45.171q3.087-0.315 5.67-0.567 2.646-0.315 5.544-0.315 3.465 0 6.93 0.693 3.465 0.63 6.174 2.268t4.41 4.473 1.701 7.182q0 2.331-0.567 4.221-0.504 1.827-1.386 3.276-0.819 1.449-1.89 2.52-1.008 1.071-2.016 1.827l9.828 19.404q-1.512 0.252-3.339 0.378-1.764 0.126-3.213 0.126-1.26 0-2.961-0.126-1.638-0.126-2.898-0.378l-8.946-20.601 0.567-0.315q0.756-0.378 1.638-1.26 0.945-0.882 1.701-2.079 0.819-1.26 1.323-2.772 0.567-1.512 0.567-3.15 0-3.15-1.764-4.599t-4.347-1.449q-0.63 0-1.071 0.063t-0.567 0.126v36.036q-3.339 0.567-5.481 0.567-2.331 0-5.607-0.567z"/>
      <path d="m209.79-23.625q0 2.205-0.567 4.914h-12.159v8.946h15.813q0.567 2.646 0.567 4.788 0 2.331-0.567 4.977h-26.964v-45.297h26.586q0.252 1.386 0.378 2.583t0.126 2.268q0 2.079-0.504 4.977h-15.435v6.93h12.159q0.567 2.772 0.567 4.914z"/>
    </g>
    <path stroke-linejoin="bevel" stroke-width="11px" fill="none" stroke="#253C78" transform="translate(7013.1 1228.1)" d="m342.62 586.94c-40.131 15.65-14.2 96.77-20.645 97.979-8.209 1.543-23.506-63.255-30.618-62.627-5.345 0.473 2.33 17.506-3.429 50.22"/>
  </g>
</svg>