<svg width="382.35mm" height="382.35mm" version="1.1" viewBox="0 0 382.35 382.35" xmlns="http://www.w3.org/2000/svg">
 <g transform="translate(-158.12 -137.06)">
  <g>
   <rect x="158.12" y="137.06" width="382.35" height="382.35" fill="#ffd9e2"/>
   <path d="m158.12 137.06c14.001 28.481 21.773 62.897 44.587 83.369 22.814 20.472 30.549 42.763 39.852 85.509 21.908-27.127 57.96-56.349 45.867-86.18-11.446-28.387 20.019-49.835 38.573-82.698-31.91 1.5309-57.212 0.86208-87.45 10.349-19.583 6.1441-57.199-7.819-81.428-10.349z" fill="#f7bccb"/>
   <path d="m158.12 137.06c14.001 28.481 28.841 56.082 51.655 76.554s25.98 41.725 35.283 84.471c21.908-27.127 47.636-51.524 35.543-81.356-11.446-28.387 27.844-46.806 46.398-79.669-31.91 1.5309-58.222 6.1628-88.46 15.65-19.583 6.1441-56.189-13.12-80.418-15.65z" fill="#e691a7"/>
   <path d="m165.26 142.42c14.001 28.481 30.788 47.194 53.602 67.665 22.814 20.472 17.25 37.406 26.553 80.152 21.908-27.127 39.454-43.923 27.361-73.755-11.446-28.387 35.669-46.553 54.222-79.417-31.91 1.5309-56.455 14.24-86.693 23.727-19.583 6.1441-50.817-15.843-75.046-18.373z" fill="#D36582"/>
   <path d="m536.36 308.62c-14.001-28.481-21.773-62.897-44.587-83.369-22.814-20.472-30.549-42.763-39.852-85.509-21.908 27.127-64.385 57.776-52.292 87.608 11.446 28.387-13.594 48.407-32.147 81.271 31.91-1.5309 57.212-0.86208 87.45-10.349 19.583-6.1441 57.199 7.819 81.428 10.349z" fill="#f7bccb"/>
   <path d="m536.36 308.62c-14.001-28.481-33.838-54.654-56.652-75.126s-18.484-51.007-27.787-93.752c-21.908 27.127-50.135 59.378-38.042 89.209 11.446 28.387-27.844 46.806-46.398 79.669 31.91-1.5309 58.222-10.446 88.46-19.933 19.583-6.1441 56.189 17.403 80.418 19.933z" fill="#e691a7"/>
   <path d="m536.36 308.62c-14.001-28.481-46.495-47.551-69.309-68.022-22.814-20.472-5.8271-58.11-15.13-100.86-21.908 27.127-37.312 58.916-25.219 88.747 11.446 28.387-40.667 47.267-59.22 80.131 31.91-1.5309 55.027-20.666 85.265-30.153 19.583-6.1441 59.384 27.623 83.613 30.153z" fill="#D36582"/>
   <path d="m310.06 509.44c2.1152-31.665 12.593-65.357 3.0708-94.493-9.5218-29.136-5.0745-52.309 8.2419-93.979-32.537 12.539-78.369 19.819-82.812 51.701-4.2807 30.307-42.255 33.149-74.754 52.333 28.4 14.629 49.978 27.859 80.909 34.763 20.032 4.4707 45.626 35.371 65.344 49.677z" fill="#f7bccb"/>
   <path d="m310.06 509.44c2.1152-31.665 3.0642-62.989-6.4576-92.125-9.5218-29.136-2.3286-45.753 10.988-87.423-32.537 12.539-66.324 17.431-70.767 49.312-4.2807 30.307-38.949 26.256-71.449 45.44 28.4 14.629 44.936 24.131 75.866 31.034 20.032 4.4707 42.101 39.457 61.819 53.762z" fill="#e691a7"/>
   <path d="m310.06 509.44c2.1152-31.665-6.5723-64.472-16.094-93.608-9.5218-29.136 0.16848-39.272 13.485-80.943-32.537 12.539-52.535 16.564-56.977 48.446-4.2807 30.307-36.675 21.411-69.175 40.595 28.4 14.629 38.52 16.966 69.45 23.869 20.032 4.4707 39.593 47.335 59.311 61.641z" fill="#D36582"/>
   <path d="m396.59 499.87c23.887-20.895 55.119-37.31 68.988-64.645 13.869-27.335 33.4-40.576 72.281-60.625-31.873-14.14-69.43-41.401-95.115-21.999-24.457 18.403-53.318-6.4388-89.864-15.854 9.7376 30.426 15.64 55.04 32.63 81.792 11.003 17.326 7.2515 57.273 11.079 81.332z" fill="#f7bccb"/>
   <path d="m396.59 499.87c23.887-20.895 46.706-42.373 60.576-69.708 13.869-27.335 41.812-35.513 80.694-55.562-31.873-14.14-70.33-33.059-96.015-13.656-24.457 18.403-52.418-14.781-88.963-24.197 9.7376 30.426 21.022 54.643 38.012 81.395 11.003 17.326 1.8701 57.67 5.6972 81.729z" fill="#e691a7"/>
   <path d="m401.59 483.45c23.887-20.895 35.944-33.815 49.813-61.15 13.869-27.335 47.577-27.65 86.459-47.7-31.873-14.14-70.691-19.723-96.375-0.32124-24.457 18.403-37.064-10.982-73.61-20.397 9.7376 30.426 13.374 33.711 30.364 60.463 11.003 17.326-0.47714 45.047 3.35 69.105z" fill="#D36582"/>
  </g>
 </g>
</svg>
